<?xml version="1.0" standalone="no"?>
<!DOCTYPE svg PUBLIC "-//W3C//DTD SVG 20010904//EN"
 "http://www.w3.org/TR/2001/REC-SVG-20010904/DTD/svg10.dtd">
<svg version="1.0" xmlns="http://www.w3.org/2000/svg"
 width="2304.000000pt" height="2079.000000pt" viewBox="0 0 2304.000000 2079.000000"
 preserveAspectRatio="xMidYMid meet">

<g transform="translate(0.000000,2079.000000) scale(0.100000,-0.100000)"
fill="#000000" stroke="none">
<path d="M5192 6860 c0 -14 4 -38 8 -55 7 -27 8 -27 8 -5 0 14 -4 39 -8 55 -7
27 -8 27 -8 5z"/>
<path d="M17355 6833 c-4 -29 -10 -53 -14 -53 -9 0 -31 -198 -31 -273 0 -26
-4 -47 -10 -47 -5 0 -10 -7 -10 -15 0 -8 5 -15 10 -15 12 0 13 -37 1 -42 -5
-1 -12 -68 -15 -148 -3 -80 -8 -176 -10 -215 -4 -60 -4 -64 4 -25 5 25 9 78 9
118 1 41 5 72 11 72 6 0 5 8 -2 20 -10 15 -10 24 -1 39 7 11 14 86 18 182 4
90 10 168 13 174 3 5 5 28 3 52 -1 24 2 43 7 43 5 0 12 28 16 61 3 34 10 67
15 73 5 6 5 20 1 31 -5 15 -9 7 -15 -32z"/>
<path d="M5211 6735 c0 -35 2 -37 11 -19 7 15 7 28 -1 40 -9 16 -10 12 -10
-21z"/>
<path d="M17188 6763 c12 -2 30 -2 40 0 9 3 -1 5 -23 4 -22 0 -30 -2 -17 -4z"/>
<path d="M5229 6652 c-3 -24 -1 -46 3 -48 4 -3 9 -38 10 -77 1 -58 2 -62 5
-22 2 28 0 82 -5 120 -8 67 -8 68 -13 27z"/>
<path d="M5242 6410 c0 -14 2 -19 5 -12 2 6 2 18 0 25 -3 6 -5 1 -5 -13z"/>
<path d="M5251 6323 c0 -35 2 -63 7 -63 4 0 6 21 4 48 -5 75 -10 82 -11 15z"/>
<path d="M5272 6230 c0 -14 2 -19 5 -12 2 6 2 18 0 25 -3 6 -5 1 -5 -13z"/>
<path d="M5271 6114 c0 -38 4 -89 9 -114 5 -29 6 -5 2 65 -5 124 -12 154 -11
49z"/>
<path d="M5299 5893 c-1 -32 -2 -75 -3 -95 -2 -21 1 -38 6 -38 4 0 8 43 8 95
0 102 -9 133 -11 38z"/>
<path d="M5318 5715 c2 -16 8 -32 12 -35 5 -3 11 -22 15 -43 4 -21 10 -36 12
-33 7 7 -19 116 -28 116 -4 0 -9 6 -12 13 -2 6 -2 -1 1 -18z"/>
<path d="M17241 5734 c0 -11 3 -14 6 -6 3 7 2 16 -1 19 -3 4 -6 -2 -5 -13z"/>
<path d="M17220 5695 c0 -8 5 -15 10 -15 6 0 10 7 10 15 0 8 -4 15 -10 15 -5
0 -10 -7 -10 -15z"/>
<path d="M17211 5654 c0 -11 3 -14 6 -6 3 7 2 16 -1 19 -3 4 -6 -2 -5 -13z"/>
<path d="M17201 5614 c0 -11 3 -14 6 -6 3 7 2 16 -1 19 -3 4 -6 -2 -5 -13z"/>
<path d="M5368 5583 c-3 -13 -3 -23 2 -23 4 0 11 -17 15 -37 4 -20 15 -48 26
-61 10 -14 19 -34 19 -45 0 -11 3 -18 6 -14 9 9 -4 53 -19 69 -8 7 -20 40 -28
73 -12 46 -17 55 -21 38z"/>
<path d="M17170 5539 c-7 -30 -19 -60 -27 -67 -7 -7 -13 -18 -13 -24 0 -22 38
38 45 72 4 19 11 37 16 40 4 3 4 12 0 19 -6 9 -13 -5 -21 -40z"/>
<path d="M17121 5414 c0 -11 3 -14 6 -6 3 7 2 16 -1 19 -3 4 -6 -2 -5 -13z"/>
<path d="M5452 5370 c7 -10 14 -18 15 -16 6 6 -9 36 -18 36 -5 0 -4 -9 3 -20z"/>
<path d="M17096 5374 c-9 -24 -2 -26 12 -4 7 11 8 20 3 20 -5 0 -12 -7 -15
-16z"/>
<path d="M5470 5330 c0 -5 5 -10 10 -10 6 0 10 5 10 10 0 6 -4 10 -10 10 -5 0
-10 -4 -10 -10z"/>
<path d="M17075 5330 c-3 -5 -1 -10 4 -10 6 0 11 5 11 10 0 6 -2 10 -4 10 -3
0 -8 -4 -11 -10z"/>
<path d="M5496 5284 c4 -16 11 -32 16 -35 6 -3 10 -10 10 -15 1 -15 22 -59 32
-65 5 -4 6 -14 3 -23 -4 -9 -3 -16 2 -16 5 0 12 -12 15 -26 4 -15 9 -24 11
-22 6 6 -21 88 -44 133 -12 21 -21 45 -21 53 0 7 -7 20 -15 29 -14 14 -15 13
-9 -13z"/>
<path d="M17036 5256 c-3 -13 -9 -32 -12 -43 -6 -16 -5 -16 9 2 8 11 13 23 11
27 -3 5 0 8 5 8 6 0 11 7 11 15 0 24 -17 17 -24 -9z"/>
<path d="M16986 5138 c-8 -29 -13 -54 -11 -56 2 -3 7 7 11 22 3 14 10 26 14
26 5 0 6 9 3 20 -3 11 0 20 6 20 6 0 11 5 11 10 0 6 -4 10 -9 10 -5 0 -16 -23
-25 -52z"/>
<path d="M5600 5061 c0 -6 4 -13 10 -16 6 -3 7 1 4 9 -7 18 -14 21 -14 7z"/>
<path d="M16946 5053 c-6 -14 -5 -15 5 -6 7 7 10 15 7 18 -3 3 -9 -2 -12 -12z"/>
<path d="M5640 4993 c0 -5 11 -24 25 -43 26 -35 33 -34 13 3 -14 27 -38 52
-38 40z"/>
<path d="M16892 4963 c-30 -46 -24 -52 7 -7 13 19 22 36 20 39 -2 2 -15 -12
-27 -32z"/>
<path d="M5690 4900 c0 -5 5 -10 10 -10 6 0 10 -6 10 -14 0 -8 4 -17 10 -21 5
-3 5 7 -1 25 -10 28 -29 42 -29 20z"/>
<path d="M16841 4880 c-6 -18 -6 -28 -1 -25 6 4 10 13 10 21 0 8 5 14 10 14 6
0 10 5 10 10 0 22 -19 8 -29 -20z"/>
<path d="M5738 4845 c-9 -9 31 -85 45 -85 9 0 9 2 0 8 -7 4 -18 25 -26 45 -7
21 -15 35 -19 32z"/>
<path d="M16797 4800 c-8 -22 -14 -40 -11 -40 2 0 12 18 23 40 10 22 16 40 12
40 -5 0 -15 -18 -24 -40z"/>
<path d="M5790 4744 c0 -6 11 -21 25 -34 32 -30 32 -21 0 16 -14 16 -25 24
-25 18z"/>
<path d="M16740 4717 l-23 -32 29 27 c15 15 26 30 23 33 -3 2 -16 -10 -29 -28z"/>
<path d="M5920 4606 c0 -2 7 -9 15 -16 13 -11 14 -10 9 4 -5 14 -24 23 -24 12z"/>
<path d="M16616 4593 c-6 -14 -5 -15 5 -6 7 7 10 15 7 18 -3 3 -9 -2 -12 -12z"/>
<path d="M6045 4471 c55 -56 104 -101 109 -101 12 0 -163 178 -189 191 -11 6
25 -34 80 -90z"/>
<path d="M16457 4430 c-78 -77 -137 -140 -132 -140 6 0 73 63 150 140 77 77
136 140 131 140 -4 0 -72 -63 -149 -140z"/>
<path d="M6190 4325 c19 -19 38 -35 44 -35 5 0 -5 16 -24 35 -19 19 -38 35
-44 35 -5 0 5 -16 24 -35z"/>
<path d="M6240 4271 c0 -9 66 -71 75 -71 10 0 4 8 -35 44 -22 20 -40 33 -40
27z"/>
<path d="M16275 4240 c-22 -22 -35 -40 -29 -40 13 0 79 68 73 75 -3 2 -23 -13
-44 -35z"/>
<path d="M6354 4172 c16 -18 39 -35 50 -38 12 -4 32 -19 46 -33 22 -24 47 -43
98 -76 9 -5 27 -20 41 -32 14 -13 29 -23 34 -23 14 0 -27 36 -88 78 -33 23
-71 53 -84 67 -13 14 -29 25 -36 25 -7 0 -15 3 -17 8 -1 4 -19 18 -38 31 l-35
24 29 -31z"/>
<path d="M16200 4180 c-14 -11 -30 -24 -37 -30 -7 -5 -16 -10 -20 -10 -4 0
-21 -14 -38 -30 -16 -17 -54 -46 -83 -66 -55 -36 -98 -74 -84 -74 4 0 19 10
33 23 14 12 32 27 41 32 51 33 76 52 98 76 14 14 34 29 45 33 19 5 75 52 75
61 0 7 -3 6 -30 -15z"/>
<path d="M7645 4171 c3 -6 31 -27 61 -47 31 -21 58 -43 61 -51 3 -7 10 -13 16
-13 5 0 2 9 -7 19 -21 23 -140 106 -131 92z"/>
<path d="M14861 4140 c-63 -45 -100 -80 -84 -80 6 0 13 6 16 13 3 8 30 30 61
51 30 20 58 41 61 46 9 14 6 13 -54 -30z"/>
<path d="M7843 4002 c15 -19 27 -40 27 -48 0 -8 4 -14 9 -14 5 0 15 -17 22
-37 6 -21 16 -43 21 -50 16 -20 22 -121 8 -138 -8 -10 -9 -15 -1 -15 32 0 25
111 -14 196 -14 30 -25 58 -25 62 0 5 -17 24 -37 43 l-37 34 27 -33z"/>
<path d="M14704 3998 c-17 -18 -37 -49 -44 -68 -8 -19 -17 -37 -21 -40 -4 -3
-14 -37 -22 -75 -16 -78 -9 -110 27 -119 20 -5 19 -4 -3 13 -22 17 -24 23 -18
75 3 32 10 63 15 69 5 7 15 29 21 50 7 20 17 37 22 37 5 0 9 6 9 14 0 8 12 28
26 45 34 41 26 40 -12 -1z"/>
<path d="M6642 3960 c2 -7 13 -18 24 -24 10 -6 22 -16 26 -22 4 -7 20 -15 35
-19 15 -3 33 -15 41 -26 7 -10 18 -19 24 -19 7 0 22 -9 34 -21 12 -12 27 -20
33 -18 11 4 -64 60 -118 88 -14 8 -44 28 -65 45 -21 16 -37 24 -34 16z"/>
<path d="M15910 3963 c0 -5 -10 -15 -22 -21 -17 -8 -18 -11 -7 -11 19 -1 45
26 35 36 -3 3 -6 2 -6 -4z"/>
<path d="M15824 3902 c-60 -32 -134 -87 -123 -91 6 -2 21 6 33 18 12 12 25 19
28 16 3 -4 15 5 25 19 11 14 32 28 47 32 14 3 29 10 32 15 8 13 -7 10 -42 -9z"/>
<path d="M6889 3776 c21 -22 98 -53 108 -43 2 3 -9 8 -26 12 -17 4 -31 11 -31
16 0 5 -6 9 -14 9 -7 0 -19 7 -26 15 -7 8 -17 15 -23 15 -6 0 -1 -11 12 -24z"/>
<path d="M15660 3785 c-7 -8 -19 -15 -26 -15 -8 0 -14 -4 -14 -9 0 -5 -14 -12
-31 -16 -17 -4 -28 -9 -26 -12 10 -10 87 21 108 43 13 13 18 24 12 24 -6 0
-16 -7 -23 -15z"/>
<path d="M7049 3714 c25 -8 61 -16 80 -19 20 -3 5 4 -34 15 -79 22 -113 25
-46 4z"/>
<path d="M15460 3709 c-36 -10 -49 -16 -29 -14 41 6 131 33 109 33 -8 0 -44
-8 -80 -19z"/>
<path d="M7800 3661 c-20 -4 -42 -11 -50 -16 -8 -5 -103 -13 -210 -16 l-195
-7 195 3 c109 1 208 7 225 13 17 6 46 15 65 20 41 11 21 13 -30 3z"/>
<path d="M14730 3659 c19 -6 49 -15 65 -21 17 -6 116 -12 225 -13 l195 -3
-195 7 c-107 4 -204 12 -215 18 -11 5 -40 13 -65 16 -42 5 -43 5 -10 -4z"/>
<path d="M7250 3651 c8 -5 33 -12 55 -15 28 -4 33 -3 15 2 -46 16 -86 23 -70
13z"/>
<path d="M15260 3644 l-45 -14 40 6 c22 3 47 10 55 15 21 12 3 10 -50 -7z"/>
</g>
</svg>
